<mxfile host="app.diagrams.net" modified="2021-07-15T09:33:14.221Z" agent="5.0 (Windows NT 10.0; Win64; x64) AppleWebKit/537.36 (KHTML, like Gecko) Chrome/91.0.4472.124 Safari/537.36" etag="UyN0L9RcpgIEw_TutnkM" version="14.8.6" type="github">
  <diagram id="dA-Dr5ijyXsP73QcPwFC" name="Page-1">
    <mxGraphModel dx="1632" dy="1536" grid="1" gridSize="10" guides="1" tooltips="1" connect="1" arrows="1" fold="1" page="1" pageScale="1" pageWidth="850" pageHeight="1100" math="0" shadow="0">
      <root>
        <mxCell id="0" />
        <mxCell id="1" parent="0" />
        <mxCell id="EZSc4S11zAWebRSHGFNz-1" value="Amazon CloudWatch" style="outlineConnect=0;fontColor=#232F3E;gradientColor=none;strokeColor=#ffffff;fillColor=#232F3E;dashed=0;verticalLabelPosition=middle;verticalAlign=bottom;align=center;html=1;whiteSpace=wrap;fontSize=10;fontStyle=1;spacing=3;shape=mxgraph.aws4.productIcon;prIcon=mxgraph.aws4.cloudwatch;" vertex="1" parent="1">
          <mxGeometry x="10" y="180" width="80" height="110" as="geometry" />
        </mxCell>
        <mxCell id="EZSc4S11zAWebRSHGFNz-2" value="Events Based on cron" style="text;html=1;align=center;verticalAlign=middle;resizable=0;points=[];autosize=1;strokeColor=none;" vertex="1" parent="1">
          <mxGeometry x="-10" y="160" width="130" height="20" as="geometry" />
        </mxCell>
        <mxCell id="EZSc4S11zAWebRSHGFNz-3" value="AWS Lambda" style="outlineConnect=0;fontColor=#232F3E;gradientColor=none;strokeColor=#ffffff;fillColor=#232F3E;dashed=0;verticalLabelPosition=middle;verticalAlign=bottom;align=center;html=1;whiteSpace=wrap;fontSize=10;fontStyle=1;spacing=3;shape=mxgraph.aws4.productIcon;prIcon=mxgraph.aws4.lambda;" vertex="1" parent="1">
          <mxGeometry x="200" y="140" width="80" height="100" as="geometry" />
        </mxCell>
        <mxCell id="EZSc4S11zAWebRSHGFNz-5" value="Amazon DynamoDB" style="outlineConnect=0;fontColor=#232F3E;gradientColor=none;strokeColor=#ffffff;fillColor=#232F3E;dashed=0;verticalLabelPosition=middle;verticalAlign=bottom;align=center;html=1;whiteSpace=wrap;fontSize=10;fontStyle=1;spacing=3;shape=mxgraph.aws4.productIcon;prIcon=mxgraph.aws4.dynamodb;" vertex="1" parent="1">
          <mxGeometry x="200" y="320" width="80" height="110" as="geometry" />
        </mxCell>
        <mxCell id="EZSc4S11zAWebRSHGFNz-6" value="" style="endArrow=classic;html=1;" edge="1" parent="1" target="EZSc4S11zAWebRSHGFNz-3">
          <mxGeometry width="50" height="50" relative="1" as="geometry">
            <mxPoint x="90" y="190.26315789473688" as="sourcePoint" />
            <mxPoint x="150" y="90" as="targetPoint" />
          </mxGeometry>
        </mxCell>
        <mxCell id="EZSc4S11zAWebRSHGFNz-12" value="Trigger&lt;br&gt;&amp;nbsp;House keeping" style="text;html=1;align=center;verticalAlign=middle;resizable=0;points=[];autosize=1;strokeColor=none;" vertex="1" parent="1">
          <mxGeometry x="80" y="195" width="100" height="30" as="geometry" />
        </mxCell>
        <mxCell id="EZSc4S11zAWebRSHGFNz-14" value="" style="endArrow=classic;startArrow=classic;html=1;" edge="1" parent="1">
          <mxGeometry width="50" height="50" relative="1" as="geometry">
            <mxPoint x="240" y="320" as="sourcePoint" />
            <mxPoint x="240" y="230" as="targetPoint" />
          </mxGeometry>
        </mxCell>
        <mxCell id="EZSc4S11zAWebRSHGFNz-15" value="Text" style="text;html=1;align=center;verticalAlign=middle;resizable=0;points=[];autosize=1;strokeColor=none;" vertex="1" parent="1">
          <mxGeometry x="220" y="240" width="40" height="20" as="geometry" />
        </mxCell>
        <mxCell id="EZSc4S11zAWebRSHGFNz-16" value="Fetch Connection details" style="text;html=1;align=center;verticalAlign=middle;resizable=0;points=[];autosize=1;strokeColor=none;" vertex="1" parent="1">
          <mxGeometry x="180" y="270" width="150" height="20" as="geometry" />
        </mxCell>
        <mxCell id="EZSc4S11zAWebRSHGFNz-18" value="Amazon SQS" style="outlineConnect=0;fontColor=#232F3E;gradientColor=none;strokeColor=#ffffff;fillColor=#232F3E;dashed=0;verticalLabelPosition=middle;verticalAlign=bottom;align=center;html=1;whiteSpace=wrap;fontSize=10;fontStyle=1;spacing=3;shape=mxgraph.aws4.productIcon;prIcon=mxgraph.aws4.sqs;" vertex="1" parent="1">
          <mxGeometry x="345" y="50" width="80" height="100" as="geometry" />
        </mxCell>
        <mxCell id="EZSc4S11zAWebRSHGFNz-19" value="Amazon SQS" style="outlineConnect=0;fontColor=#232F3E;gradientColor=none;strokeColor=#ffffff;fillColor=#232F3E;dashed=0;verticalLabelPosition=middle;verticalAlign=bottom;align=center;html=1;whiteSpace=wrap;fontSize=10;fontStyle=1;spacing=3;shape=mxgraph.aws4.productIcon;prIcon=mxgraph.aws4.sqs;" vertex="1" parent="1">
          <mxGeometry x="360" y="230" width="80" height="100" as="geometry" />
        </mxCell>
        <mxCell id="EZSc4S11zAWebRSHGFNz-20" value="" style="endArrow=classic;html=1;" edge="1" parent="1" source="EZSc4S11zAWebRSHGFNz-3">
          <mxGeometry width="50" height="50" relative="1" as="geometry">
            <mxPoint x="295" y="170" as="sourcePoint" />
            <mxPoint x="345" y="120" as="targetPoint" />
          </mxGeometry>
        </mxCell>
        <mxCell id="EZSc4S11zAWebRSHGFNz-21" value="" style="endArrow=classic;html=1;" edge="1" parent="1" source="EZSc4S11zAWebRSHGFNz-3" target="EZSc4S11zAWebRSHGFNz-19">
          <mxGeometry width="50" height="50" relative="1" as="geometry">
            <mxPoint x="340" y="250" as="sourcePoint" />
            <mxPoint x="390" y="200" as="targetPoint" />
            <Array as="points">
              <mxPoint x="320" y="210" />
            </Array>
          </mxGeometry>
        </mxCell>
        <mxCell id="EZSc4S11zAWebRSHGFNz-22" value="Add Event to&lt;br&gt;&amp;nbsp;Postgresql queue" style="text;html=1;align=center;verticalAlign=middle;resizable=0;points=[];autosize=1;strokeColor=none;" vertex="1" parent="1">
          <mxGeometry x="310" y="180" width="110" height="30" as="geometry" />
        </mxCell>
        <mxCell id="EZSc4S11zAWebRSHGFNz-23" value="Add Event to Oracle Queue" style="text;html=1;align=center;verticalAlign=middle;resizable=0;points=[];autosize=1;strokeColor=none;" vertex="1" parent="1">
          <mxGeometry x="190" y="80" width="160" height="20" as="geometry" />
        </mxCell>
        <mxCell id="EZSc4S11zAWebRSHGFNz-24" value="AWS Lambda" style="outlineConnect=0;fontColor=#232F3E;gradientColor=none;strokeColor=#ffffff;fillColor=#232F3E;dashed=0;verticalLabelPosition=middle;verticalAlign=bottom;align=center;html=1;whiteSpace=wrap;fontSize=10;fontStyle=1;spacing=3;shape=mxgraph.aws4.productIcon;prIcon=mxgraph.aws4.lambda;" vertex="1" parent="1">
          <mxGeometry x="480" y="-40" width="80" height="100" as="geometry" />
        </mxCell>
        <mxCell id="EZSc4S11zAWebRSHGFNz-25" value="AWS Lambda" style="outlineConnect=0;fontColor=#232F3E;gradientColor=none;strokeColor=#ffffff;fillColor=#232F3E;dashed=0;verticalLabelPosition=middle;verticalAlign=bottom;align=center;html=1;whiteSpace=wrap;fontSize=10;fontStyle=1;spacing=3;shape=mxgraph.aws4.productIcon;prIcon=mxgraph.aws4.lambda;" vertex="1" parent="1">
          <mxGeometry x="520" y="290" width="80" height="100" as="geometry" />
        </mxCell>
        <mxCell id="EZSc4S11zAWebRSHGFNz-26" value="" style="endArrow=classic;html=1;" edge="1" parent="1">
          <mxGeometry width="50" height="50" relative="1" as="geometry">
            <mxPoint x="425" y="70" as="sourcePoint" />
            <mxPoint x="475" y="20" as="targetPoint" />
          </mxGeometry>
        </mxCell>
        <mxCell id="EZSc4S11zAWebRSHGFNz-27" value="Triggers" style="text;html=1;align=center;verticalAlign=middle;resizable=0;points=[];autosize=1;strokeColor=none;" vertex="1" parent="1">
          <mxGeometry x="430" y="50" width="60" height="20" as="geometry" />
        </mxCell>
        <mxCell id="EZSc4S11zAWebRSHGFNz-28" value="" style="endArrow=classic;html=1;entryX=-0.05;entryY=0.173;entryDx=0;entryDy=0;entryPerimeter=0;" edge="1" parent="1" target="EZSc4S11zAWebRSHGFNz-25">
          <mxGeometry width="50" height="50" relative="1" as="geometry">
            <mxPoint x="440" y="275" as="sourcePoint" />
            <mxPoint x="490" y="225" as="targetPoint" />
          </mxGeometry>
        </mxCell>
        <mxCell id="EZSc4S11zAWebRSHGFNz-29" value="Triggers" style="text;html=1;align=center;verticalAlign=middle;resizable=0;points=[];autosize=1;strokeColor=none;" vertex="1" parent="1">
          <mxGeometry x="440" y="300" width="60" height="20" as="geometry" />
        </mxCell>
        <mxCell id="EZSc4S11zAWebRSHGFNz-31" value="" style="shape=image;verticalLabelPosition=bottom;labelBackgroundColor=#ffffff;verticalAlign=top;aspect=fixed;imageAspect=0;image=data:image/png,iVBORw0KGgoAAAANSUhEUgAAAR0AAABqCAYAAACBOoW2AAAgAElEQVR4Ae29h3cVR7b9//3rfi/OzJs3Y8/YHnucxtmAE8ZEkZRQzvkqXOWcc0QiSUgI5QAi52xjMMazf+tzRMsXoSxkxLzutXrd0N3V1dVdu/c5dc6u/yd3cVvAbQG3BX7DFvh/v+G53FO5LfBCW+Cf//ynWH/55Rc9fvxYP//8s6185z9nu/P5Qiv7L3xyF3T+hW+ue2lPtwDg8vDhQ/3www+6evWazp07pzNnzujihYu6c+eOfvzxRz169GgGfJ4+2v31vFrABZ3n1ZJuOeu2BR48eKD+/n7VNdSosr5M7Ucb1dHTpPaeRrV3N9j3zp4WNXbUqrq+UvUN9bp48aJ++umndXtNL3PFXNB5me+eW/cFW+Du3bu6cPG8Bkf6VVJZoOjkUEUkByqzIkEFjR4Vt2aqpC1TRS0Zyq1LVVJelCKSgxWdFKGDR9o0MjZs4OOaWws287I3uqCz7CZzD1jPLeD4bGApsJvCsjzFZoQpvwGQybAVkJlrnd6eaWCUWZ6gpMw4lZaV6scHP5oPiLLdZfUt4ILO6tvQLWEdtQAOYfwzzS3NKq7JU16tR3n1aSpsTp8TaOYCH/6DCeXVpim7LE0Z2ek6c/aM+XvW0aW+tFVxQeelvXVuxedqges3rqv7+DHlV3iVW52m/EaPilqfZTaYVjPrExNrNgABVHl1afIUxqu0qkjDI0M22uUynrlafun/uaCz9LZy91znLXD//n2dHDyhgvJs5damqqDJ8wy7AUjyG9OUWZGorPIkZZUlKb00QTm1KXPuDxCVtGcpLiNcVfXl5uNxhtfXeXOs2+q5oLNub41bsaW2gOPonZycVE1zhVKKolXQ/CzgOGYTjuSAiN0KCglQUHCgdu7doXhvuHJqkp8BKYf9lHV4VVDtVW1drQ27u2xnqXfn2f1c0Hm2Tdx/XrIWAABgH42t9fKWppr/Zi4fDuaUpzheYdEH1NvXY36a8+fPaWJyXDn52fLkw3jmB57M8kTllXvFMQzDu8vKWsAFnZW1m3vUOmqBnx7+pAvnL6istlCZ5UnmqylqftaPk1mVoPTCJJWUlujmzZsGVFwGkclDQ8PKL81WXFbY9PGzRrgAsdz6VBXUZqqto1U3bt5YRy3wclXFBZ2X6365tZ2jBRitam1tVVFttvLqUmWAMwfoxOeGyVvs0dDg0JxMpbquUkFRe1Xa7p3TzCppy1JxU5ZSMpM0dXZqBrTmqJL71wIt4ILOAo3jbno5WuDKlStKTEpQTkXaNFgAOHOATqw3RN4ij8bHx80vM/vqqmsrFRS5b17Qwb+TWZmgvWE7dHK4341Ynt2AS/ztgs4SG8rdbf22wJWrl5WYGquc6tQ5TSPHGZxVlShvSapqa2p17969mQsiJ+v8uQsqqylWXFbogmXg84nOOKDuviO6ffv2TBnul6W3gAs6S28rd8912gJXrl1WUlascmsWBh2G0L3lyfJkp6izq1Ojo6OamprSyMiIKmvLzQmdVZkwp2nlAFdeQ5rSimPVdbRDMCx3WX4LuKCz/DZzj1hnLXD1+mWl5MVZbA4jVA5AzPWZXZOspLxIJXriVFiSL/w4RWUFikwJVmpR9ILHUh6Ryt6qJLV3tej8+fPrrCVejuq4oPNy3Ce3lgu0AKCTukTQYRRqOkDQI09prJILo5RVmfgkrmfxVAnYEsDV1tVs0hgLVMvdNE8LuKAzT8O4f788LWBMJzdOObULm1e+zAfgyatPVU5divIbcEAvDjgcT1oFINVxqFUXLlx4eRppHdXUBZ11dDPcqqysBcynkxmrnEV8Or6gs9LvAFVyQZQOd3fq2tVrK6vw//GjXND5P/4A/Ctc/vToVbxyq9IWHHlaKdD4HodpFZEapOP93U+NgP0rtONvdQ0u6PxWLe2eZ81a4OrVq/Kke5Rb4ZkzPscXNFb1vTXDnMj7QndpeGzINHbW7KL+hQt2Qedf+Ob+X7m077//Xj09PSqqyZa3OmnREaiVAo9JYTR5lVuYbYqEbtLnyp4wF3RW1m7uUeuoBcidIpeqsqFUmaVJc+rnrBRofI8D0HIr03W8t8eEwtZRE7xUVXFB56W6XW5lF2qB9oNtyivPnFcXxxdAlv89Xcn50UrPTbFkT2fWCGaXQMSdmB1nZVTrxo0bQt9nqdo7sCYkVskjA0QXY1Hsw6wWly9fsvMstv9C7fZbb3NB57ducfd8a9YCRAg3tdcrNjPUTCw0j5cPLnMfg3B7RWORsRwHcACJ4eEh/eMf7+uNN16fWd96602Fh4fr8OHDNq0NwLPYQllTU6eVk5OtK1cuLwo6169fV1tbqzZt2qCurs6Xyr/kgs5iT4O7/aVpAVjH+OSYKupK5CmOszicxSKUFwMlCyRs8CgjP1ntna1mxjmsgvP195/Qn/70v/rss8/k5+enPXt2y89vl7799luFhoaqra3NGAnHsD8M6PLly5ZCQe6WM+kfqRhZWVnauPFzHTlyWMxkAZshRwxH+aVLlwTQAE6AGP/V1dUJgKurq50plzLZh4VzUgbsiXNSBmaoowXEdgDUdzvHU09nYR8Ym1OH2dud/Zbz6YLOclprne3LA8EDCM3mLU8e0f/19eTJk6qrr1VUUpgSc6JW5Vgm+pjYn6ziFNU21AhlQl9zaRp0+vXnP/9JCQkJOnjwoA4dOmSfiYmJBkAREREGFji7x8ZGVV5ertraWlVWVqq5uVmnTp2yTg+AfP311/rjH/+gjAyPRkaGLfiwurpKNTU1tnIcEh7Xrl2z+83v119/TTEx0aqvr7d9SkpKNDY2ZsADoJBf1t7erpqaajtvaWmJBgZOGvBwLQMDA2ppaZnZXlFRoZMn+2cmHWRCQhhbdXW1gVt9fZ0d77C9lXQJF3RW0mrr5JhfHv9iD8/ExKQ6OjrsgS4rL9f/9bWwsEixsXGKjA9TQnakpS2QMzWX3AVMp7B5enVYD+wGcyqrMkkZxSnKyckxpgDI+y4O6Lz66p/V3Nw0wzDY5/Tp08ZcvvzyC1MaxM8D0HzxxRcKDAzU5s3f6NtvN1vZzDJaWFio9957T7/73X9r//59BgRHjx7Rp59+or1792rfvr366qsv9e677+jYsWNWH8AIwPvoow8N4Cj3b397Q16v1/xMMJTCwgKFhIRo37598vffr7/+9S8GkNQH4IiJidF3332nvXv3GDODsWVlZQqQBJQAMY6FxYWFhVm9AVRecrColSwu6Kyk1dbJMTCc8fEJVVRU6siRo7p06bIuXLzkrhcu6szZcxobH1d+Yb42fvWZJXnCXBBZd8DF+XRAB5EuVqas2X1gu4LDA1RRVT6vc3ch0MGMocO/887blsXOvcJkgjkwvB8REa4NGz43IDh37qz9hzkGKGBe0ekBDcAB04uyvv76K7366ivq7Ow0Uwmmw/4FBfkzTuz8/HwDCI8nbca0wqw6ceKE8vLyDJR27dppLynqs23bVgUGBqirq8tMKJzijtmH6QdgwdbQIAJoGhsblZaWptzcnBUHR7qgs04AZCXVuHvnrj1MLa2tOjkwqGvXb+jqtevu+qQNLl2+ot6+PpMnrWupUVpuohJzIw1YHMApamGWT68JdyXkRCo6OVwV9aUqLitSZlamsZP57s1CoEPHLSoq0ptvvqmhoSEzc2pra4xZYErhvwkI8Df/D0CEmRMbG6s33nhNQ0OD1vH7+nqNlRQXF6uyskLJycl69dVXzXwDSBoaGvTZZ58agMBamIsdQNq+fZvCwkLN7MZ0ys3NNdDi+6ZNG405Ydrh28nMzLA6AESRkZHyeDxmTlF/1p07d5qjPCgoUOHhYQZSW7ZssbqyfSWLCzorabV1cgw3vafnuLp7jmtsfEJ0svWyXr5yVVeuXpu3PhcvXRarsx+fa1F3znH23HmNjIwpJT1FoQlBKu14IkfanKGqzgJ19jep+nChYlLDFBUdpSNHjmlwcFg1NbVmss53u+cCnWk/22OdPn1K6ekeffjhh8YSMK0wYWAWdHh8MKmpKWZKMdQ+G3TwHwEWGzduNBMMvwog8/rrr8+ATmNjgz7//LOnQIf9duzYrgMHgs0EwzTjvAUFBRoeHtaOHTuMvQBOmE+Dg4NmjmE+sW3z5s3CfDp+vMd8R5T19tt/186dO8zEw9SKjo42/xHsbSWLCzorabV1csx6Ax06+PkLF3Xu/AVbHWDhczag8B+moLOPcxyfc+0/+/iV/M4vyldMWriYTsaYTnOG2nvrde32FTX3Viq3FGZTZeefmjqrurr6JYMOoMLoEvfk+vVrqqgoN9OJDn/x4gXFxsYIhoCj+datW+ru7hYmEIwEk4bOHx8fp9df/6uxV/w5dP7U1FTzDzmmzd/+9jcf86pGf/nLKyopKbbRK86NwxfwwHybmJjQBx/8w9gMx1O/6W0ROn78uIEOJhxmFtsYhEhPT1dQUJAdg4kXEBBgZWHmwaQAGo7BnzPbx7XUbuGCzlJbah3ut15AB5bCenrqjI739qmhsUk5uXmKiY3Twc4uTZ05+wzoADinT0+puLhUcXHxys7OUUNDo3qO92ry1GkzEVcCLAsdk1OQo6iUkKdBp+9X0MkpzTD/GKC3dNCZHjLHgfvhhx8Ys+HzzTf/ZoyDES2GvRk12rr1O2MMZWVlZqp88cUmYyFMaXP27FljNL///e8sVgcTDCb08ccfKTs728yx777boj//+c8zTMdxJPM/zmNGxtg/Pj7e5nEHaBi6x4GMDyYvL1d///tbZjIxCgaApKQkKzExQVVVVcakYEY4l/E7YbJxbnw+gB/+HEws6gVAsX0liws6K2m1dXLMegAdwAagwZldWlZu7KCpqVlNzc0GItU1teru7jF/kwNOfOLoraqqsePq6xvU2tqmxqZm1dbWqbS0TLm5eZqYPGVgthCQLGUb5+rsPKTMfI9FFRf7TCPcvgrQodPR+Q4cOGB+kmlThpGmfcZampqajEHAChgah4XExcVOjzKWlRm44EMhhoZYGdjP/v37bcSI76wJCfHmG2LoHGcyZhOmGMPmbA8NDTFgoGxGmlJSUtTTM50Bf//+D2bG4UDGv4RJl5GRbmYbjAvzEDOLYXIAi08c0TiVnSl6GHLnOMwz9qEsAIvtOJpXsrigs5JWWyfHvGjQgRFcvnzFgCYyMkpFRcX2QELdMRf6+vqUnJQijydDnV2H1dLaoebWDrW0daimtl5+u/cqNyfP3qo83PinWlpale5J17ebt2hwaHjVjAdzbXhkVJnZmfIUJip71mR6qwEdOh1gwfUyjO2sgAHMxdfngf8EEwYG0d/fb6NYFy6ct2OdQEA6MmWwHSDCvGHkit/4iGAu+FoI1IM94UzG2QzwMURPPRh+d87LOXlGaFvKYBumHCNRp05NmnmEMxlHdm9vr50bk4xjnIVrBOAAOq4L8KS+q1lc0FlN673gY39r0HH8Lw674PeFCxdtdoWMjAzzVTBsD0M5fOSokpJS9MmnG/XW39/Xx59s0jvvf6a33/vMPt957xO98uqb2rjhS8XHJZgZhjP84sVL6uo6pB07/TQ8OmYMyTmf7yfn9v091/eLl65o8tSUug4fUkxamDLK45/R21kN6Lzg2//Snt4FnZf21sneSL/V6BUjQDAGfDFOB2d06urVayopKdWmTV/q8w1f6atvd2tPcJKi06qUmNuhuOwOxed0KangmBLzjyrBZ43N7lJCbpeS8g4q3tuogIhMfbs9UB98tFF/e+MtYz2c1xkFwyzjN76gpYJOS0u7AoODlF6aoPzGJ/Ni+cze6YLOb98BXND57dv8uZ3xt2A6OIEZOs7MzFJdfYOqqmvMhzMwOGSOz7T0HIXHZMgvKEVb96dqR7BX/rGVivZ2KbVsUJnV4/LWnVJ2/ZStOfVTYuW3t+60smomlFY+pPi8YwpOrNOu0Dxt9U/TDv8UJWWUKTnNq6wsr44cPaa+E/1qbmlVTnaO4uMT1HGw05zOgJEDhL6fMJ3evn7lFxQoNjVK6SXPAo8LOs/tcVxyQS7oLLmp1t+OawU6DqMYGBhUZ9chJSUlKzwsQlVV1dq5c5eSUzwqLqvRlu3++vwbf+0OL1BK6Ull159RVs2kAU165ZhSy0eVVDqsxJInK9991oSSYdueUjYiT+WoMqrG7XhAKrN6QsGJtdr0XYi+/HaPMnNKlerJUmJikiLCw7Vzx07l5eWro6PTAiPnYz78Pz4xqfSMTKVlJyqrPMlSHEh1YNjcBZ3f/rl2Qee3b/Pndsblgg5gcuXJ8Dbf6ZBzdVaimolw9njSTaKBkQ4cl/hb/v7WW/qf/31DX22PmmEysBUYTUbV2MxnctmwIvIHFJDZpz1pPdqdynpcu9Ocdfr3/vReheX0CwACqCjHKYtyWZOL+xUQV6lXXntfQUEhGh4aspEXhtijo2MVH5+oc+fOz8l2YD5cI2YhMTjxKTE27QyzOiwHdIhJWWh9bjf1SUGzz/U8yp9d5ly/5zrPUveb69i5/nNBZ65WeUn+WwroAC4MWTOkynAn7IDh6PqGhmd8NI5pgimDSUUELBnLrA0NTfLbE6SdgakKTqhWfP4xpVeOGkAAFrCZ0Jx+RRUMKKt2XPVHzuro4BX1jl5T/8QNDZ2+pZGztzV29rZGz9zW8NQtnZy8ob6x67Zfa88F5TdNKr54SOG5JxVbOCjPExDiPCkl/QpLbVRwbLGik3JVUlxsozIjI6Nqbm4x8w+Tz/H/ONfigA7A09bWLk9WqiJSAy2/armgw+gTOUykEzDUzEgOw+Z0yue9EIzH6B8jSwTlPY+F0SxGyBjdYuW+MuJFRLQDLHOdh1E0RsgIWGQka7XX64LOXK38kvy3GOhMv+EvKsWTrd3BCdoblae9Ebm2Ribmqqys3CKHASbfTgroYEoRZXv06FGVV9YrMiFbu4IzFJt9SJ6KYQMbzKeEkiF5KkdU0DSpys4zau+7ZCBz5vI93bzzQPd++En3HzzSw58e66efH+sR66PHevjosX58+LPu3f9JN+8+0MVr32vo9E11nbysusPnVNJ6SmmVo2aOJZeNzLCfuLyjCkupUWRinvILSy2lAM0aWBnsbC7QIU7n0OEjKqkolic/yWbytKzzJZpXDBszNJ2d7bW0BYLxSA8gyrilpdlY4EpjVuZ71BhaJzCPT4blV7sAMpOTE6bvw/A6zJVhcGJyAJSFQIcIa/aLi4szyQ3AazWLCzqrab0XfOxioINJcfbcOW3eHqi/fxGuzTEH9U1kq76JateWoGyFhoYb6GBO+YIOPpCW1jbzn8QnebQ/NFX7okqVWY35M2b+l9TyEaVVjCq9ekxVnVPqG7umKzfvG5isplke/fyLbt19oNEzN1Vz6Ky8deNKrRgR5/NUwKwmlF45rOisTm3dHSn/wDBleXNEgCH19gVQQJfoZobvvblZSs6Je2bYfDGfDkF1MJyoqEjLCifBEnkKcp6QnUC0izwpUgMAB9gPMTZnzkxZrA4pD7Ahtp09e8aSOYmXuXv3jgXX0dnpxMS+ENszODhg8TekUZCC4ATiIcwFSyF5lBgo9uWcHAvgUUdiehAJA0T4zidgQxAgdSTtAtmMsrJSjY6OqLf3uAhgJG6HMojZIY4HBkSeFvUEnIgnQo8HvR/iiLgezg0LoxzigGBm/LcU8HVBZzU95AUfuxjo0OnIg/rOL0zvb0nSztR+bUvq0Y6UPu0IL1FYWIT5Oq7fuGkMAZbAeuPmLR0+ckTbd+zS1n0Jisw8qKxanLvToIPpE104qOKWSU1dvKMfHzzSL7/86vNYTbM4b9xf/vlPPf7lnzp/9Xs1dZ9XWG6/4ooGDeim6zEuT/mQNu9O0IeffKH+kwPPsDauv6WlTYHBgUotjJ0xqSzv6smw+WKgQy4S4f+ffvqxoqIihAwFAEDnLC4uMtDB3MLsQNPom2++tqjg6QTJfWaiAgTt7W227//8zx8sqxvzjE7K9dLZDx3qMkD47//+L4tCJndq165dM6BD+aQ9oFL4hz/83lIbAAbqAjCQZoFkKikWpFu89tpr2rZtmwEU4ADQ/Md//Lv+/d//zeQtqB+SGP7+/gY8mHAAGSkQ7777rklokGEO0yKQ0Bd0MLcAGo4lF+ztt982+Qv+45oWW1zQWayF1vH2hUCHDoePIzk5Ve9/8Jlefeszvf3ZHv39Uz/7fPvDr/XBBx8pOOiAQkJCdeBAiA4cCFVISJgCA4K0d3+odh9IV4y304a0M6rHlVY+ovDcfhW2nNKJiRu6cuO+mUgAzmKL80YnJWA54k8PfvpZN+78qMkLd1RxcEop5SOKKx761dzKPSr/6CJt/m6PRTwTx+OwNtqgt++EcvPzFJ4UrIzyhGUHB6Ils2fPHhPewpQCILiWn356aBHCRPACKrAJgGXjxg0KDg42lT5AgUhi2ATpCaQg4JT3erMs3IDvMAM6a1paqoKDg3TkyBEzaclxQlALQIOx0OlhKZTV2XnQTK+QkAPGRmA5MDIEvUirQDuZ3ySYktYAcyEimetA9oKUBvwzgA5pF4AqoEaqBakQDQ3Tia7khmFSOsqDMB3MbXxNJKqSbY6vkP0dcAaMF1tc0Fmshdbx9oVAh+RL/BgxMbFKSExWSlqmUtNzfl09WeYHwamci3M5L1/e7GyFhUdo8xY/bd4ZqajMTqVXjii9alz4VeKLB81vgxP4+/tLT/ajk/J2xC9AIGF7e4cFNi6FitP8HP/4l180cf6OWo9fUE79hKLyp1kPo1tJhb3asjdZ4dEpamxqMdABcFhPnZrSse5uFVUUKckbq5TC6Gngac4wJcGFmA7OdEwcEjjRssGsmW+hjoAO6n50fMyZR49+0rVrV40F0IFhDvhpdu/2MwU+ki0xfxDjwl9CQibmEiBGAifqgphXAAZyqOghk2yJFg9lIAhPm8JkYF0IegECpEtQV5gIwID8KMCVlJSkyMgIM5EwAcnlckAH0621tUXJyUlKSko0tkUSK0AIe3KYDqBz7NhR82mRTEouGSDGPqRSUM5iiws6i7XQOt6+EOgQPdza1q6CwiJNnp7S3Xvf687de/Out+/c1cVLl1RQVKLQ2ByFJDcoq+aU0quItxkxv0p2/biu336w7BaB2TCkHRQcrA0bNhm7Onb0mLGG5RaGc/rY0BVFFw6Yk9n8PFXj8tae0lfbwxQelWA5WwCOw3jIvxodm1B6VrpC4wKVU5eswqb0JYPOJ598bJnY6C8DLs4Ku8G04foAC0Bny5ZvDShgH4Aq+VFffvmFZXe///57+uijj2zFH0SH5R6iu0MWNyaXs6C5g8QETnI0cvApvfLKnw0AnTKccwEoCH0BSvh8YGP4aRAFQ42QEaqFQIdRSnxPmHg4yMlUp34wJ0w82JIDOvh0YHcwG5QPMen4hBHhR6I9aJ+FFhd0Fmqddb5tKaCTnZOroaFhi89xOuHsT5yvmCVHjnbr4w1btC+qyGJuiLshuI+Ym7rDZ/XDg0fGOJbbLDhR6bBpnnRjXxUVVfLb5acb128styjzHf3w4yOdvnBH8SXTw+tObE9c7hEFRXkVFR1jLMdxkDush0DHdG+aAqJ3KbcuZUlxOvg4MLG+/vpL84sALg7oMAqEH4e3O76V+UBn06ZNxjJgLMxTNb1e1q1bN204HNABgDCdnOVp0DkkctsAIcDDKYPETxgkz8FqQAcZDcTaYXSEVQAejuAXGfSzQcfxI3H9SGYAqv/7v3/U1q1bjUXRRgstLugs1DrrfNtioMMIlDc7R6OjY3KcxbMBh98wnObWdvntPaDg+AolFh636GBGpwAcYmguXv9BOHcXe4vN1WS3b9/RiRP9FhWMyiGSFlu/22YjLnPtv9h/OJgZbicGKK9xUtEFgwaS6RUjivQ0KTgyU/WNTTNqiqRyIJuRU+hVal6c0sviZibkW8i8QsQLMwezAX1i/CEIqCP1gHAWPhUcsoAJo0+zQYe2gkHAOJgHi86No5UOffjwIevosKWmpkYze/DrwI4AE0w0RskweRjaxh8Es6GjA+KwDVgQo0awqsVABxMMswxfEX4jX/MKBzVsCPMM8w8fEKNoMCrE3vEPOUwH1kUdAEVY1fj4mPl8YGI40fH/LGY2u6Cz2BO+jrcvFXQQb7956/acMhGwHEZ+vLkl+npHpFJL+i0KmBgcmAQM5+zle3r8eOG310LN9CzoVK8KdJxz3f3hJx0euGymH6kUpFEkFfUpLKVOwWFx6jp81EytuoZ6ZeanK60gXlmVidOqgUscvUKjBpMB8MGRi18GSU86GI5aWJAzZD4bdKgnpg4dFZ8Q/hXKo2MjmoXfBdOMYXZmnMABzXYcuwiiI1UK6AAYABP+JeqBDwX2gdMX8w0f0GKgg6MY0AM4cWrjK6IMfDr8jzmGyiFsitkgqAf7IgDGOfEV4Uh2QIf6A8CAL74o/ED4g7gml+k4T+i/4OeSQWdibtC5iKbylasqq6hWVGKeJWkS+EeEMY7j1MoRG7ImmM93gV4jCs8Dz1uX3wstKwEdWAIPLwzi6pWrNroCK5j9QBNU2NJ93pzc+J4wtRILerTp22AVllSppLRM/kH+Si2KUV5j2rJHrxCuYsE5y9sdMMAMwcmbmZlprADgoL7ozcAkcLTCcFioL+wGMwzBLfxDMCR+sw/H0X6MCOEsRl6U2RaQKkUoHR8KbUxb43DGefvxxx+bcBhOXcrGxAKoCFoEAGknYmzQWMb3AiPBYY3ZBDNjxYcEw+E8jKJxDuq/e/duA1Mc21VVlbYdkwtAxdSCdd27d9dmNmW+LRznOMlhcpyHuiy2uExnsRZax9tXCzo4WNGwCY/xaGdQprw1p5RVPa6ofFIZxjR+9pYePHxWC5c3L9HKW7dus6hmHvCFlpWCjjOyA8WHUfA2pkP5LjCwC9e+V2rFkFLKAcxRi5iO8XZpb2C0ddKtO7fKW52swpbpJM/lxOk4oDHzJL8AACAASURBVIPJAGuB9eDDoe2pn5MG4YAH2wERBxwd8KTebANo+HQAlO3OsXRYyqZcvvuWxfmJpeG802XcnSmDc1E3tjkAyCeA5NSRfZwgRQCG/ymP8zh1od5soxz+d7ZTzsOH09dOGU5Z1I99b9+eviZnm+/9meu7CzpztcpL8h83fD49HUavHJ/O+BxMB7PqzJmzKi+vUGRiocLTms2swkQhFqbuyDnhsPWNwaFz8PBXV1VbXE/nwS4VF5dYAByAwPa5FurZ13dC6ekZNnMFKRZbv9s6r0/n558f69at20pNSZXXm215YAzt44vA3zF7oZ4nxq8bUJI4mkHUdMWItvhFKSAwTNW11YpODVNGWcJTptVycq9mn9P9vfIWcEFn5W33wo9cDejgQEaZ70BotKLSapVWNmDpDTEFgyprn9LomWnzwPciHdDBsRjgH6DJydPq7Oyy7G2oPyMrvB3ZjxyrO98/1OmLd3XoxBkVV3cqNS3dQKektFIfffqVOrondPrSPcu9evT4F3NU84Y+e5a4kxJFRUWrqanFnNDIayByjgN09kIMz/c/PlJ11xkDzOls9QntjypRVAIpEvVKy0hVWn68squTngKexRzJDtOZfU7398pbwAWdlbfdCz9yNaBz5uxZHTrSra+2Bivc0yJv7WnTv9nr6dXhgSv66dH8U8Zi+3uzvDYK5eQ2wUTQSCYY78btH8wXRAY5mePBmUe1I6pSickeY2a5+WX6/V8+1v7UThW0nNKx4as2Onbr3kMhvAUT+uijj9XX36+z58+rubnVHM+MImEWzLdwvqLmSYvfYbg/rXxY4Ull2r/PX+3tncrK9yjeG66S5yTMPl893P8XbgEXdBZun3W9dTWggwpfXkGpAmKKTbUPs4pAu4SyYQ1NTTs457t4/AejI6MWRVtRWWWjX0NDI0pL8yjFk6eozGaF5A4otXLUggsTi/oUmd6opJR0A52CwnL95c3PFJd3zBy/OK0jCwbkrRvV/pBEhYaEanh4VDdu3bZI6YCAQA0PDZuPw/GVzFU3stWbui+YxAZBjSSH7gzO0ptvvacT/QPKK8pTrCfCZvN0/Dou05mrJdf2Pxd01rZ917T0lYLO1es3TOozODRasd6DSisbtKhjfDlHh67qxt3Fo45xIhLwV1FeYbNBdHcfV29vn7JzCxUQma1dUbXGnACz5OITis5sUrIDOkXl+utbnyuxoFvkdJngV3aPvt2bpKg4j2kjX7x4WVnebPMDEfuBM3Ox+A8y1HvHrlt5nBfQCYyr1KbN+9R9/IS8edmKSYv4dd6rlgw1HqvQ6JkB1XeXarnzXq3pzf0XLtwFnZf45q4GdGrrm03yIqXkhGWPm6xo6bCu3vpxSTE5jn+nr7dPZeVVKi6rtiDE9o6D8mQWyD88c1p7p3zIBLhiMpuN6SAoBtNxQIeM8YS8YwqMKdb+oGjVN7ZYbE19Q6MiIqMNgAC4pS5Tl+6qomNqWnajckyxOYcVHFesqtpGJaYkKSb1aaZTcTBfbcfrVNmVp5zSTDPtiGBeymR7S62Tu9/TLeCCztPt8VL9mgadnjnnMl9o9Aq5i9LKRn21I3JakKtmwvwgSeVDun3v6SHphRrEcRi3HOzRgegMFRSWaGR03FIdEpI92h2SqbicQxbhHOmpV1xCig4e7FR2TqFef3ujSFtIKT5hgPP1Fj8dOnJMY+OTqqlr0KavvlPboW7duHV33lGxueqGFk/30FVTHsRsy6gaVVrxcYVHxSs0PEzxnhgVNKXPDJ+jlVzQlKbc2hTllWVb5LILOnO17PP7zwWd59eWv3lJKwUdhq9zi+q0N7LEQAdZUOJbStpOmZLfUi8E0Ll6875qOk9pf2KTtu6NtYA8/EUDQ8NKQAAswqtv9yRp4+b92rHDT2Fh4fLz26N3//GZdoXkWBR0cFiCDh0+ZomphUWl8g9JUEhyvSLzetQ9cnVZ+V6oFDLyFprdr4TiIUsETSvr1+ebtsiTnmnqgWFJAcpvIFAwQ0WtGQJ49ofsVlFpkcUtuaCz1CdgZfu5oLOydlsXRwE6RKwy/zeqeb55VQsxHab9TckqVZin1aRGYQS5DRM6MnjZcpqWenHkYqGDzLEx+ScUltZsCZeFpTU6eqxbGRmZiopNVVpmoeob22wSve5j3Tp06LDqG5qUV1yr3fsOKCo6TkPDIwJwIuO9CkmoUHLxSdPuaem5sCz29fPjX2zkLLLgpCWrZtedEibkux9+Y45zJt7z5mcqpSBGObUplhYRlhikguJ89aAXfOGiJYu65tVSn4Ll7/dcQIdhTJLACP+mIzhRkUQoEnrtCB3xZmQb+xL2TT4IUZDsx3fyOojIZB/KJO6DeZnpWGNjozZ6wba5FspmZIOISkLBETpCa4Rz4xNgO+uLWjg3MSyE9VPP51EXB3SOLwN0CAokziYqMUfoDcNw0DkuaTst/CHE1yxlAXB+evRYpW2nlVJGQN709DHMeRUUmaGU1HR5vTnTOUYDAxYx64w8ce1EwU5MjFvOUEpqqnLzCrQ/OFYhiQAOfqZxA42y9tOmncydW8rdo+zrt39USuWIaSx7ayeVVNSr9z7ZoaLSahOj7zp0SKnZSUrOi1VSToziEmPVf/KkAc50Aqzr01nKM7DSfVYFOtxgVrJSSc1HIhGAcDo5HYwkNfIyCOxiX0AhPj7eNDvQ8XBCylFIQ4qRqFOOA6zI//j739/S66+/pn379lq2L8dTzuyF/xjKRV4xLCxM//Zv/5+QfiTPhSxgJ9Sb49h3rtUpc65t/LfQsQsdw3EAKyAK2Dp1me8Y51xOfeb7XAnoIPcAAwmO9Ex37qpRxRZNi3Mhkk4Gt7MsVD/TMr73UNl1EzaDQ1bN9NQxTKC3LTBdf3/nIxUWFOrSxUtOcXN+kqxI4uD//PEV+ceUKqW43wAH0PEi0FU2orKOMzMZ7nPVaXbB+KWKW08rq3Z6ahyy5j/5KkiFZbWaPH3aIrFrausUmxSj1Kxk9Z8c1NlzF2aYomtezW7R5/v7uYAOb85PPvlEr7zyimWbwi54OHizk4UKyJCrw5Anw6x79+7VG2+8oaioKJv+gtB2Ml1JpAMgEDNCm+PNN/+mP/3pTwZGr732V9ve1dVpHXh2M8CYCFoLDAwQ+6JFy8p3hIgILHNGQZwHl/qwzmYeC21nG/s7q1OGcwz/z1Um7AvdlODgQKsH+zhlOWU49eD/pSzLBZ1r12+Y/nFycor2hyRbFDKjRzGFgyaCTmSv77l9r8m5XueTDO/+U7eV3TCltKpTyqk/Y2tuwzl9uydB777zns6dPWcAu9C1wFyReohPSFZUeqNSSwd8yjqrmOIxeRtO6/7Dx8J0cs7v+zm7fMCzufu88homTfKCzPMvdsSqsKxOo+PjpgtNUOPxvj71nugzLSGAxjFPXdCZ3aLP9/eqQIcbjxmEXgjp/gkJ8U80NdoMGNCRBUAQQiIjl7c9YeVk2yILgELZ0NCgmUOk0pO5ywNISD1qZEgBkOFK2j7SAKiUFRUVmik2uxkAOLJmAbRdu3aafCJi1Ahc79u3z8pAdwSWQYIi5ZLiT7YtdSKLl210AkAQ2QDU85F4RBUN0KKTk2wHm0KKABChHDJ82ca1UL/ExAQrm+sAbOi8paWllo371lt/s+3okJCxSznIAnAMkgLNzU3Wpr6df/a1Or+pC5nGvb0nNDF5aqbTWIrDHLlXgA4SF0zJuzsocXrkCtApGlTt4XNOsTOfADlO59raOktLKC0tk7My/UuiJ998OAERWToQ5dWBqGwFhGfKb1+YYqJjLLZmKdeBad3S0qodeyO0KyBeB6KzZ8rbHZKhwKgsFRWXWca4c/6y0jLLyzpy5KjdN9/zkIuFf6qwadJSOzDXtuxLVWFpvYZHRmbaCeEyX01lF3Rmbv2aflkV6AAiTNSF+QSwMB3FRx99aHqtmEFsJ90dXVbS9Anwgt2gDYsS2l/+8qql1cNQACVMIbRFMLVIv6dDO2r0zDvEdkyyufJvMK1QXiP9HkEhTD7MGUAPpXyYFKYcokeAE6AHm2JFS5b/ABvAAxPv2283G5AiJbBt21YDLbKrUcxHDwVW9uWXX5opB3BwPhgfGiTsjxI/WiSYDgAZAkq0zauvvmLMCzkBhLHRuQVskSXAhMzMTLc6AOiLLYDO4cNH1NfXb3lQTqdZCHRu3b6jmNg4+QUmPJksbxp0SPCcvfBCmZ7lM0LRMbGKjY3/dY2LVzxr/JPPuHglxCdYImhKSqr50x4tkErhey7Ogw7Ltq3b7AWRmJA4XbaVOX2OON9zx8YrLi5Bu3b5KT+/wGQnfNuLESymxClqPmXxOswQuj0wy0BncHBoBnR828v3u8t0fO/O8/++YtDhzQK7ADDwvdC5rl69Yp0V0R/YBGYDAAHooEQP04ARZWZm2EOJDissobKywsqAcdDxeQCRMvjjH/9oHRJAAziYNwjg8n2rOU1CxwZk8CHBiPz8dgm9j/r6Ok1NnbaOz4PpyEDCrFCuB0gQKAJA8LegzA8AwpaYzZH6oJyPnghsCNBBpwRg4T+AlXYAKGFjCCzxm7c3DIb96FSwGljXli2b7TezBCCyjRgUbQVIc4wznxFtt9gCiOJ8XzboxEyDDjEsZl7BdOYAHcxRUhCY3fPe9z8IwFpovX3nnoZGRnW8t09jo2N2/xe7BrbzwuDlleX1qqend2nnunvPZFhhOv0n+p86148Pflb/+HUVt0yDDrOD7jyQrcKyepshwxdg5vrugs5S7trK91kx6NCBmfkPESAABdOqsbHBTAg6PlKK7EOHQ5wIxsDbHaBBVxVHMUppgBUsCBMIfw4POscAIEz5AQMBxFClhxE4jGT2JQNEPLyMiHR0tBuQwEgolwnRYEEACGppqNzjoGbitE8//VTvvPOOiV4jrIS5wsyNmF2wLkwM6gQo8B1QoAyukX25xgcPfjTW8tVXX5k49qZNG20yNsAP/VgEoAA0X9CBpQCyTDPy+eefGzOinQj551xLBR3alLgYfBS+HWiuIXPHvIKxGNOpQPTqiXk1B+jQnswXDnOJCI9UZMSvK3NmBQaHyT8gVPsDQuQfyBqq7Tv3KjYu8QnTWdqMEWi3AMpff71Fm7fsUEBQ2JPyQrTP/4B953wRT87PJysxP2SQ05bcB2eB6RwfuWpMh3wyzKttARkGOoNDw0+1k2+bOd9d0HFacm0+Vww6PJCwAjrYO++8bWCChisjTe+++475KHiY6Ki8/VEYY9oMOjpSh5g5yBwy0oQW7I4dO6xzwmSYMgMmAjAxvM4DyTGYPCizMRQOyDiMh0+Ow/RChpH9YTCYdphogA4q9wy7w1IwaXA4wzTw1wBO/A8jYvQNE5BtgA4PM9cAEMJqHNDBjMP0Y6EtMJWQe+Rc02VSrteYFqNxONB9QQf/Ef4efEeYKKj2A2QwPK6b8y22wHRoixP9/Tp1euqpzjQf6DCRXkJCovYGJ9lkdY4jGZ+OM2Gec16ADzZImzTUN6ixoXFmrayukye7XP5RedoTliP/yDxb94XnyG9/lDHX+VipU77zCSjX1Tdqx/5Y7QhItTIpLyAqT9uDvQqIzlVtXYMBoFMHwBDWio4PLNd5FigTmYvO/ks21TGJnziSN+9OMkfyyOjoU+3kAI3vpws6zp1Zm88Vgw4PPG9lAAeHMGaCs8IiABjMBjoXDAJfx3/+53+YrwafCb4TOsw333yjt956y7RaMUvowAAOjAgHMm9ypj9FK5ZOzYo55As6AAPlAWCACT4WHL+wCyYQw3EN0GC24dxF6xaGBTBxHY6v5v79H8yRjUB2QIC/Hc92wAFWg6kIA4Pp+IIOoASTwumcn59nzIj6MBsk+1M/fD7T4tVfmZkJENGhAW6A9ciRw8awmK4WPxRv78WWX0Hn5JJBB7aTmpqmgLBUpZaeVGbVmKUMVHedtbgb4m+Wstx/+LMmL3yvnIbTSqkYV3bdaTFc7q2b0rb9yfrs08/sxULb+ALC7LIBcl4SkdGxNkc5/pfs+umysuunlFQ+rpKOs8LaXGLVxMga5mJu/YQJeiUW9mrjdxE2ZI6gmS/AzPXdBZ3Zd+n5/l4x6AAodFyGo1GSd0CADgaDOXAg2ObR+eGH7+1thBlG3AyMArYAGGHHM0rFfECMBDlvLAL7UN8HpIi3cVamRMV/RAd2zkdz8J2HG/8SPhRnf+eToXeOo5MznI/PhjmC8CdBz2EZOKkZUcIE43/qxARiACNM5IMPPrB9Ofds0IER0B6wMICX9iAuiVkQATjqxrkxQQktoJMBpLAp6gsj440NWDJdie/w/kK3++aNm+o82GnSEkyu59uB5mI6xOgwbTDmakh0huiMGZWjiisaUsXBMyamtVQBdljRg4ePbeI7Z8ZNZyqYLXsS9c4776u1tc1EwxcCHeJ0GNl7/Y23TDI1Pu+YsmonLdiQgEP0eBBfB3CWCjq37j5UTuOkMmsIWJxQYkGvPti0T0RKn556mhH6tpnz3QWdhZ661W9bEejwENFRcJziFMYMYXGAAJ8KQ8AACc5jOjK+GNgLVB2zi44K/cbkYJQH84n/KIO3PB0X5oCfhKkwmJ8ZkKPTc9zsBbDDFwLwcO733nvPVvxNDJ0DdLAozBbMLIAHMwowglHBOBxzELoPc0HdHuDA1wKI8D+sCJMIAMEH5Vw3ZeN4dkxGnN+clxAA6sZ2zAFACADmWMAHYGP0D/8WDIvzwJIA4MUWmA6s6OTAoJYKOnSs8ooKxaYUKDr7sM3gmVgybP6PkTO39HCWCPt8deA+ETfTcOTcdFJlxZjNxvD1zmgdCIsXOjtxcfEmh4q5CPByf2kLPrkPME/ucWxMnNo7OhUZm6zgmHxFZ3Ua6IRk99tQPvldS11gamTKx5WgmTyqbItI7tPbH22xiOS5hsgdsHE+XdBZamuvbL8Vgw6mBmYSsSl0dt8FBoO/A9OIjozZhAlRW1tjIzQOo+EBBCRgEzAQfrPwQHMMAMOoEIBFZ2T0iM471+IAHufjOIIRWTGLYBmU7ewDaHE+ysZEhGXQKZzzUz86NPWHCQGUmEN0Fj4BKOoNCPkunJtyGZ6nbMwyynXOS7sAEmyj/XBQY35h8lFXzgPgcJ6lLLAETNeBgUExt5PTaficj+mw7WBnp9JzKxWcVC/mimK6GW/tuFp6ztuEeks5N/twXeNnb6u0bUoH0g9rm3+agkPj1dDYbKNECLcHh8UrJZ1pi4tUWFhk6oJ5efnKzMpRdmGtNm/dL/+gcJPFgBklpeUqMDJHERkHFZXfb/o+s2ejWKh+pGZMXbqn0NyTAkzJvUot7df7H32t8soay6vybae5vrugs1ALr37bikBn9ad1S3geLQDotLW3WwdfDuiMjIyqsKxBO4O9FiDIXOVM35LTMG7+kKXWDdBh0rv6QxPaeqBAn2/crJbWDo2PT6qt/aC+/naX/ILT9Y1fnN56b4Pee+8f2rhho9599x/6w/++If+YMm0NSNe+A0mqqmmwETgcxJExqdoVnKnsyuMaP7v43Ni+9b33w08amLihsNyTQqQdUy2t7IS+3eJnesvkns0FNL7/uaDj26LP/7sLOs+/TX+zElcKOvh1KqoatOHr/fKUD5rfI754SLHFg0KneKkLoEMAYEVVrfbsD7YYm/MXL9m0NF9+s10RGa2W1sDoEXo68YkpOnT4sHLyivTXNz9XQn63+V1CUxv1xXdBxkQQiz985Jj8/YNsFgjY4XKWa7fuq+vERdMHgsGllQ8pqeCQPBk56u07YT4tX4CZ67sLOstp8eXv64LO8tts3RyBv6yttc2U9s6cPffUG3wh84oRrMbmVu3YHaykwh5zJieXDiupbNhMkwc/Le5PmgacR2Ya5uUXqKmlVefOXVBxSZnCYzMUHF9uuV0IpJtcaUbTE43kHhUUlZlyIKCDozeltF8RnibtPZCiwtJqEyU72t1tmsuYnvjRlrqMnb2t3IZxS3/g3OGeVu0KSlVre6cmTz2dKjIX4PCfCzpLbe2V7eeCzsrabV0cBei0trSaFs1sB+lCoAPTOXzkqOIS0qyzM0xNEB0mFukQF679YP6a+S4SwDGW1dam3Lw8NTU3mzO7qblFWd5cxaVXKSa/19gG86HDdKIzntVIBnSIo0HPJ67opEKSKpSaWWjxOCOjY6qvbzAfkJP6gn9soYWgQGayIGsewAHQ9kUV6+PPt6jvxMCMdMV8YOP874LOQq28+m0vBHRw2BKfwbA5q+NY5mFm4bfvNsfBu/rL/dcq4fq16+aURgBrOaBD5+IY/Ci7Q7MUk33I5CQAiNDcfh0fu2YjU7Nbi/vDykR4pB8EBgaprb3DmFZX12FFRcWorb1LLUeI25lQcvmwzTOeUNirSM+zs0HE5h4TqoUpFSNKqxpRS/c5VdW1qaiwyIAH9tbc3GJSHE5EOc/GfMu5K/dU03VWkXkDyqhkNG1Me8Ky9cknn9vsEg6oLPbpgs58Lfx8/n8hoMMIFHlGjPQwqsUQufNAc1mM4DAMz3beqACQuzzbArQhw/A4htE99u1MCzEd9rtw8ZJ6Twzoi827FZbSMC3rWTGqoKwTOnji0pyypdwjXgC1NbUKD4swdUCAAecvchlHjx6zUT/mzMI3dGLiuio6TiuuoEf+CTVKejLvVV5Bmf742icK9nSaKUT08KXrP5hT+v79H21yvfDwCLW2d2ji1GlTRgTgGC1dKGiys++ivDVjNhpHzBBMCtaVk537TEiBb1vN/u6CzrPP2vP854WADnE7TU2NltZA/A1Rw8Rt8FDzJiNvi6A50h5IqgSE3OXZFpgBndHlgw6jOOMTp5SQlKrI1EolFPRMmzqlI/LWTejw4JVn0iK4Pwzn5+Tkys9vt6amzqisvFxFxcUmRQogwGBZCDIkMhgwOTl6QXXNR5TmmZ5WuKy8Up9v/EbH+k8LdnLzzoOZaGhAjftNzFNKaprJahw5eszYDuEBhE3MXlA7JJanuPWUqQ3CcDJrJrTNP0VRcenCVANkZ4PLfL9d0Jndws/39wsBHRyD5DsRMYzUAxG/TroA8THp6en6r//6T9vu6OcARmwjq5qYFpJLHQ0cOgKxQuRdEYgGSyLYkJgYcrzY7gAaoyFOGbw5ieFxtrMPHYegPcqnTqzEERFXA0O7c+e2BgZOWvzO8eM9FvjIcazUh4C34eEhiyom7obgQLatxbIa0KHDYZJ1dBxUWJxX/jHlxnZQACTCuLjttG7c/vEpM4vrABSImSKor6Ki0qKzaR/8S/Nd553bd4y9pGdk+sxlvs2OmatdKIe2bmxseqKLVG7nIaByNtOhaW9//1BN3eeVXjWq5NLpGSBSSk5q254IAzoc5/MBzFz/u6Az1115fv+9cNDZuHGjRQXzFqPz82ARKfzXv/5VpD0AOgThASo83Lt377YMcdIJABZAwwn2I3UBACPCmJwwkkwJLCSgjweZTspoCGW8/fbfLQ+MQD6205kISCSokax3Mr8pnyhoUhM4N4DFGxhp1k8++ViBgYHmU+H8HA/IIafBShlEMxOhPF9nXO1tNNBparY3+XLNKzobnYvjImOStW1/ovlAYAnEtxAseHTwsrEVUh58F66XifV27thlQZIEOS603F4m6PiWRRBmVmaWaRUBbL4LgPPgp8dixCosp99YDmYVkweGJNUqPiVHjU2NywIcp11cYXbfln6+318o6AAqqA6i4Ec+ENScfCQUA9PS0vS73/23gQ5sg86O0FVVVaWxGd62ZKxjmuH3wf9DdjsmGbk8MB6STun8MBoAjZQDxMNIGCVaGJ0fZCxgPjApGA514TiywgFCEjvJ0+J8MCzqReoH4AjAkcJBx8A8BHQAog0bNpiJiMzGxYsX1gx0MFMZ2cF8WAno0MEwszo6u5SSWay9EUWWBArwJJYOK6pgQMNTN4USn+8CwOJng3Xwye+FltWADuUT6U37cg99F0Bn8NRNZdWOWvQxI3AksMbnHNJHn21WfUPzkiKQZ7Mdl+n4tvLz//7CQQfZC3KlyOqGcZCbRFZ4eXmZfv/73xnowGZYSRaFeWCa0bkRcke6AtMH0HnvvXcNZAAc3r6UGxISYoyFjoGpA+CQd8VxsBnkONC1YTi2rq5W8fFxVj5+BRgW9fvwww/NdIOB4YMCFAEgQAuNHzLfz58/ZyAFyCFPgYn344/3rVOuFdPxBR2mTvHtPL6O5LGxcd24eXPewDi0eErKq/XV1kAlFx2fGcli3qi8xgnr2A8ezj9qtNhjuRrQWajs0xfvqqbrjM1mAeBk1UzajJ7+UflKTs1Q34mT816zb1vN/u6CzkKtvvptLwx0yKjGb8ObGvZBZyZPavv27cZ+yPT+wx9+b6CDWUMWN8ewIv1JRvcrr/zZBMEAJEAH8wrGBGDwhmRfMsgBKpgMphOyGZwPAEMtECVDvk/vn23nbmtrnQELnNqYgNSTjHqkJ0h0JdMcTWPkKgID/WdAh2ROtmH6rPWyVNABgK5du67LV648BUy+nY0o4MiYBO0J884MoaczLW/hoMo7pmwCu4c/kbD5tKm1lGvEND5xol9JySk6dOiIKiqqtGP7jnl9OguVCbshv+rKjR9Uf+SsMqpHLc4Hswo/TlhytUKjPeru6X0mH833ehf67oLOQndg9dteGOjQ0QEVTBv8LMiLImKFvwVgINmS2Rzw6cBQSJKk82MiAUKYR+gUI57lgA6aOQANjAnmApshg9uREIX1IGFBzAf+AUyloKAgAwlABwYEi8Gs4jd0Hh0fhMpgQeg2Y74hgYpJBYjhLEa/+fvv7804WAG52f6H1d+qZ0tYCuhkebNN+oLRm7lWGBL/Y5719vXrHx9u0M4DWUorG7KscWJ34osHTWLi7JV7uv/g52UDD+bR0NCw6RozvF5WVqGw0PBnnMLPXuGv/8AWWQGcy9d/UNPRX4lDpgAADHxJREFUsxZBzZxdCJFhEoamNCgqMU+lZeVmVi0lz2ou8HFB59d2X4tvLxx0YDd0XkwXzCVAAsChM/O7uLhI/f0nzHeDKQRI4cPBT4NYGKDjmFfzgQ7MAyD67rvvzLnL6BOCXZwTcw5TCZAioxw/DeYbPgQYEwCCUxrGAyBh1jFjA3VALgM/EFnnOKHx6TCq89uCTqP5dGabV/h5mltalZiYbHOLY2KNjo49tbIPLIg4H9a+/n7l5ObLzz9aOw/kKLOGKVzGTdycFAlWfDzf33/ax7PYg4lpe+vmLYvv8XqzVV1VbeanM7y+2PFsB3DINp84d1vVnVOKKRywCGrq56kYtnnR/UOTlVdQYgwH4JgLUJbynws6S7kjK9/nhYEOLORPf/qjiVkRIAjzwdyiw2JKofrHbBGwHqQqmO8KU4gZE9CyQeMGrWOU+hgWx7yaD3RgOgzBoleD4DploJUDu0JvxzGvOA8So6gc4q+BNcGOPvjgH8ZiMPlgR/ifUClklIr6EQIAM/qtQQcTDtaGBOdsRzJBe8e6ewx09u4L0m7/SAVGZCggIl0BfIbEKyQkTDm5eSJ3CrmJnJw8M4HQKN7lH6OA2HKllg08AZ4R851468bVeeKSLl7Dsfv0PFkLPYaPfnpk9wnBdkfbaDEHtFMeuj1kjzOFMTORMjSeVDpscUXplSOKy+nSjn0xIuiQpM6lAMtC+7ig47T82ny+ENCBJcBmwsNDDWBgFIh2wSJgDrAMHkycsjAeOhdAhC+HYWgEsgAKmIcTIwLbwXFMx2dIFx8O58BxDCviAYcxeb1ZCgoKtFEr/D+AHKYbb118DxzDkDhmFwBEHVA3pAycw8iKwoaoK6DDkDv153wwHkAANrbYMPLzuJ20i0UkzwE6dKqx8QlVVFbq3Q826Y9vfqN3Nyfp7a/j9c7mRL39+V599tkGA53ComLlFxTOrAT7pXi82rEvWkHxlUoswLk8YSZMZN5JZdaMqbn7gvonb+rGk8A+x/x5HtdFGZSH/4jZOifO39Ghk1eUVTNmo1TkamVVTyi9YlgHkuu1wz9J0bEJ6jnet6LRqtkA5ILO87qLc5fzQkBn7qq8+H8BKwIQ8ZUAQJhkgArxPgyR45tYT8sM6MyRBkFHwldz9tw5bdkVovc2x2t7cq+2JhzTtqQebQsrUmhYuM6fvyiC5/B/OCuypj3HexUeGa1Nm/fadL9IRFikb/WYUspGFJk/IP+MPpMSvXzjBxNDJzJ4qRrL87UjYAOzQafnzvcP1T1yTRk1Y9qT1qukUmavGLd6eMqHFZ97RBu+CdD77/3Dcslmm5izwWSpv13Qme/uPJ//XdDxaUdmocB0Q1aV0TRWROeZJI9YoeX4IHyKXbOvgA4sbXiOhM9fQee8vvx2t/7yj136bF+RPtmbr0/25OtLvwSFhUdYVDJZ574dEl9Pa1u7pTs0NrVqf2CkNnx7QHR0gIfMcBzMZKWTrJlUPqzshnH1T9yYM2drOQ0A2MBsMKPiS4eUWDZsMhUp5SNiNM1be0o2eV5Qlnb4hSg3t8DYbVBgsJmTK3Ue+16/CzrLuWPL39cFHZ82w0TDd8S8XJhdrMzaiYMZc2mpPgifItf0KyNk80lb0InoPLAdYnCSMoqUmlun1NxapeTUKLeo1qbyhR3M7qiATl1dveJi40wLu6OjU2npeeYTCowrU3x+t7x1p2zUCNaDsDvBhMyoyVQ2LT0XzO9zYvy6Js/f0cXrP5joO7lYTA9z7/4jM5uu3LwvYm0GJm/oyMBlO67+6HmVtk8ptWJU0YWDZk7hLPaaAuCgDiTWam9opjJyytTY2GLmN05+P789IkdrNoD6gslSv7ugs6aPrVzQ8WlfqD2jWJhVRNuyYlLhr2HbelsAnflEvHw7GE5lgORE/8np9UT/zIgXHcx3X74j8t5xsNMyx9vbkR8dn07ATEnT11sDtCMoXVGZbUos6FGGTdg3biyEvCeAIrpgQEmlg5ZBXtV5Rq09F3Vk8IqOj15T79h19Y5e17Ghq+rou6TaQ2dtfqq0imE7Lrpg0NIwLLrY/EjTk+VFZx3U/uhi7fSPU2R0kkWM4/jH18YQuTc7x2RbZwPo7Gtbym8XdNb2SXdBZ23bd01LxyGPns3A4NCKA+Hm64QkgzISFHwgxOKdiPLmfF9+8aVee/0tfbpph/ZHFSup8LilHmB2OT4f4mY8laMWtEdUc0zBoKLyBxSRd1IRudMrmjcADCyJkSjMtZnjKatyOsKYublCkur0+bfBev1v79msnvjXcN7n5+XbXOuIh8Ho5ruW5f7vgs6aPrYu01nb5l3b0m/cuKmDB5mCZmBZejFL6YR0PBhS/8kB1dTWmrREclKydfqiohK1tncpO79Ufv4R2r4/UYHxVWZ2eSpHTAw9q/aUTSODSBeshRVgmb2yHWF4YoLw1zC/elJhr8LSmrVlb7L8/GOVkJKlusY2NTW3Kj09Q/7+AQoJCbUsd+ZNR5R+Lsa2lOucax8XdNb2uXWZztq275qWzkgbIQOYTbOnFZ6rM630P+bVYnqY6uoak8IYGRmzjn68t1c1dQ1K8eQqMDxFwVEZ2heWrn0RuQqKr1ZU5kHF53WbXCkpCsT8kAHOJwwGhzA6PtHeLoUkN2hfRL4Co3IUEOYxWYrk9AJVVNXr0KHDGp+YtHMis1paWmbi7zAxgPF5mFS+beOCzpo+ti7TWdvmXdvS8TkRE9TXd8Kmb/HtOM/zu9OpCUDku/Obz5u3blvkc0REpJk6MbHxiohOVmRCnqJTKxQQla/A2GJFp9cp2lOvKFvrFOWpVXhSlcISyxWZXKbY1BKFR6cqMSlNCfEJOhAcbMJgmHkM4TvXAyCwTtdh+ruz7Xl9uqCzts+ty3TWtn3XtHT8GgRPElMDE3henW455dy4eUuVlVWKiY61ET7CCojOJkMfUbWvv/pKn3z8sYICA7Vn9275+flZft3ePXu0Y/t2BQcFmRQJUeUcx/H4jpAW6ezssvgbB+SWU6/V7OuCzpo+ti7TWdvmXdvSAR3y1rp7ejQ6Nv5CQIch6qPHui19YsOGjdq5c5f5XcipA0hCQ0IVFR2jkyeZv71P+GDs83ivDnZ2qbCg0Mwl5m9HrGu33x59881mBQQEmiP7eTqIlwpELuis7XPrMp21bd81LZ2oaTownZ4h8aV2que938TkKbV3HFRsbJzNVVVWVq72jg7zNzGVcEtr2zPxM3RsTCdG3/AVwWqQP/V4MgzACgqLzGT8rVkObeOCzpo+ti7TWdvmXdvS79y5a/6cI0eOWbb48waT5ZYH6wEkGE06frzX5i4n6XT2lMdOueyLk7rr0GEd6z4+s9/lJ+U4+/3Wny7orO1z6zKdtW3fNS2dIEZiVtYL6MwGh6VGBwM+L4LRzK6v89sFnTV9bF2ms7bNu7alO6BD1DC+EobNiSaGWTCUjPnCiBN+EVY6Ex3L6eSAAiNDzkrip7Nev3FTq11xMq+2jBdxPG1AW5IKgtbSShYi2dvb200+BYVJROeWs5Byg8+OiGsiz2frQy+nrNXs+/jxzybdgmgdmlGY9IjcxcXFWXL0SlKDXKazmjvygo9FAoQUBdT4mIIX8Hl6PWi+FvwttrKd7+3TK9PPzGzrOGgxOPz31HrQ5/fBTkuPIEWC9WCnz8pv+6/LHMQ4iWev+G2e9zr7HAv+nl1n3/p3Prmmg112HQ2NTWpqarb0j5XcZqRZMjLSTRNq48YNJpnim0rDvXPSbAAUOi+dmlE/RvGm5V+6TGQOORUAiH0ow1FDIOGXFw8jfvxPOcRuUS7gwDHsAwBSJvmDABifpPY4C6k/7M+52Z/tlEWZ586dVVlZqelLTU5OmGAesWFoU3Ee6sRKGZyb4zkvv/l/9kI9XNCZ3Sov0W9uLA8RGkK1tXXmkGXaHIawccqWl1eYvGtJSalKiktUXFRsU/YWFBSqIL/A0ggQU8vLzVOu75qTaxnmTKqHbhGf09+f3s+O5fiZNd/EwFBqzKd839X0egpMOhZRtdWvhU+X73OuvLxpUTKEyZ5dfev79HenDbge6s6IGuCwnIWOykooA7pLyKIwYYAzoaRTFqoFaEghYIfAHMCBDC/MCmmVoaEhUzz4wx9+J48nTcws4oAD4QTMTsJKnBYABxABWvwmVIFnAnaCvhOfpLEwowoshRFPJhKgnpyX4zmObazUC2E6gIeykOlFPbO2tkanT58y3ShYHG0DsABYlE8Z/M8nL0PqwzlY+KT+U1On9f8D/L3jxlagRo4AAAAASUVORK5CYII=;" vertex="1" parent="1">
          <mxGeometry x="490" y="120" width="161.33" height="60" as="geometry" />
        </mxCell>
        <mxCell id="EZSc4S11zAWebRSHGFNz-33" value="" style="endArrow=classic;startArrow=classic;html=1;" edge="1" parent="1">
          <mxGeometry width="50" height="50" relative="1" as="geometry">
            <mxPoint x="540" y="120" as="sourcePoint" />
            <mxPoint x="545" y="60" as="targetPoint" />
          </mxGeometry>
        </mxCell>
        <mxCell id="EZSc4S11zAWebRSHGFNz-34" value="Fetch Password for DB ID&amp;nbsp;" style="text;html=1;align=center;verticalAlign=middle;resizable=0;points=[];autosize=1;strokeColor=none;" vertex="1" parent="1">
          <mxGeometry x="480" y="80" width="160" height="20" as="geometry" />
        </mxCell>
        <mxCell id="EZSc4S11zAWebRSHGFNz-35" value="" style="endArrow=classic;startArrow=classic;html=1;" edge="1" parent="1" source="EZSc4S11zAWebRSHGFNz-25">
          <mxGeometry width="50" height="50" relative="1" as="geometry">
            <mxPoint x="545.66" y="250" as="sourcePoint" />
            <mxPoint x="546" y="200" as="targetPoint" />
          </mxGeometry>
        </mxCell>
        <mxCell id="EZSc4S11zAWebRSHGFNz-36" value="Fetch Password for DB ID&amp;nbsp;" style="text;html=1;align=center;verticalAlign=middle;resizable=0;points=[];autosize=1;strokeColor=none;" vertex="1" parent="1">
          <mxGeometry x="520" y="250" width="160" height="20" as="geometry" />
        </mxCell>
      </root>
    </mxGraphModel>
  </diagram>
</mxfile>
